<svg width="221" height="29" viewBox="0 0 221 29" fill="none" xmlns="http://www.w3.org/2000/svg">
<g clip-path="url(#clip0_2301_197)">
<path d="M82.881 6.87561C78.08 6.87561 74.8933 9.91825 74.8933 14.4717C74.8933 19.0251 78.08 22.0676 82.881 22.0676C87.6831 22.0676 90.8698 19.025 90.8698 14.4717C90.8698 9.91834 87.6831 6.87561 82.881 6.87561ZM82.881 20.2979C79.2851 20.2979 76.8738 17.989 76.8738 14.4717C76.8738 10.9544 79.2851 8.64534 82.881 8.64534C86.4769 8.64534 88.8881 10.9543 88.8881 14.4717C88.8881 17.989 86.4769 20.2979 82.881 20.2979Z" fill="white"></path>
<path d="M101.434 20.2979C97.5582 20.2979 95.104 18.0326 95.104 14.4717C95.104 10.9758 97.4723 8.64534 101.197 8.64534C102.834 8.64534 104.427 9.09853 105.913 10.0694L106.623 8.42946C105.095 7.39341 103.265 6.87561 101.219 6.87561C96.2672 6.87561 93.1235 9.89672 93.1235 14.4932C93.1235 19.1111 96.3102 22.0677 101.327 22.0677C103.631 22.0677 105.805 21.4416 107.161 20.3631L106.344 18.7231C104.9 19.7802 103.286 20.2979 101.434 20.2979Z" fill="white"></path>
<path d="M109.783 21.8087H122.551V20.1257H111.721V15.2268H121.151V13.5437H111.721V8.81806H122.551V7.13456H109.783V21.8087Z" fill="white"></path>
<path d="M131.051 7.13456L124.139 21.8087H126.163L131.998 9.24927L137.812 21.8087H139.922L133.01 7.13456H131.051Z" fill="white"></path>
<path d="M181.266 7.13456L174.355 21.8087H176.378L182.213 9.24927L188.027 21.8087H190.137L183.225 7.13456H181.266Z" fill="white"></path>
<path d="M154.298 18.7446L145.169 7.13456H142.5V21.8087H144.373V9.12007L154.341 21.8087H156.171V7.13456H154.298V18.7446Z" fill="white"></path>
<path d="M159.977 21.8087H172.744V20.1257H161.914V15.2268H171.345V13.5437H161.914V8.81806H172.744V7.13456H159.977V21.8087Z" fill="white"></path>
<path d="M199.021 13.4791C195.534 13.2418 194.242 12.6373 194.242 11.2348C194.242 9.61634 195.813 8.64534 198.397 8.64534C200.464 8.64534 202.251 9.18467 203.651 10.2207L204.512 8.64534C202.919 7.48009 200.895 6.87561 198.548 6.87561C194.608 6.87561 192.261 8.53712 192.261 11.2994C192.261 13.9323 194.047 15.0761 198.612 15.378C202.079 15.6154 203.393 16.2198 203.393 17.6224C203.393 19.3921 201.777 20.2979 198.742 20.2979C196.417 20.2979 194.22 19.5859 192.584 18.313L191.658 19.8883C193.445 21.291 195.965 22.0677 198.721 22.0677C203.005 22.0677 205.373 20.4707 205.373 17.5578C205.373 14.9248 203.586 13.7811 199.021 13.4791Z" fill="white"></path>
<path d="M221 8.81806V7.13456H208.233V21.8087H221V20.1257H210.17V15.2268H219.6V13.5437H210.17V8.81806H221Z" fill="white"></path>
<path d="M45.5465 23.9025L45.6374 24.278C46.2787 26.9282 48.6462 28.7943 51.3671 28.7943H61.2615V21.299H47.5148C45.638 21.5242 44.853 20.5009 44.5191 19.6564L44.1956 18.3198C43.5542 15.6697 41.1867 13.8035 38.4658 13.8035H0.86087V21.299H42.2533C42.2533 21.299 44.9159 21.299 45.5465 23.9025Z" fill="white"></path>
<path d="M56.7507 7.49545H42.648C40.0497 7.49545 39.4038 4.82631 39.4038 4.82631L39.3288 4.51641C38.6875 1.8662 36.32 -3.8147e-06 33.599 -3.8147e-06H0.86087V7.49545H37.3865C37.3865 7.49545 40.0497 7.49545 40.6799 10.0995L40.7706 10.4745C41.4119 13.1247 43.7794 14.9908 46.5003 14.9908H61.2615V7.49545H56.7507Z" fill="white"></path>
</g>
<defs>
<clipPath id="clip0_2301_197">
<rect width="221" height="29" fill="white"></rect>
</clipPath>
</defs>
</svg>